# xmcd
#
# Track frame offsets:
#	150
#	17905
#	37063
#	51281
#	75528
#	92918
#	109538
#
# Disc length: 1947
#
# Revision: 1
# Processed by: cddbd v1.5.1PL0 Copyright (c) Steve Scherf et al.
# Submitted via: dBpowerAMP V4.0
# Normalized: r0:DSETVAR1,TDELIM( - )
#
DISCID=52079907
DTITLE=Various Artist - Deseo
DYEAR=2001
DGENRE=Avantgarde
TTITLE0=Tranquilo - Belanova
TTITLE1=California Dreaming - José Feliciano
TTITLE2=Erika - Vargas Blues Band
TTITLE3=Feal the Beat (Satie) - Najwa
TTITLE4=Gimme Fantasy (Radio Mix) - Gianni Coletti feat the go gospel girls
TTITLE5=Sunday Morning (Casino Radio Edit) - Vanessa St. James and Lou Reed
TTITLE6=Tengo Sed - Batidos
EXTD=
EXTT0=
EXTT1=
EXTT2=
EXTT3=
EXTT4=
EXTT5=
EXTT6=
PLAYORDER=
